HIERARCHY
ROOT Hips
{
	OFFSET 0.000000 0.000000 0.000000
	CHANNELS 6 Xposition Yposition Zposition Zrotation Yrotation Xrotation 
	JOINT LHipJoint
	{
		OFFSET 0.000000 0.000000 0.000000
		CHANNELS 3 Zrotation Yrotation Xrotation
		JOINT LeftUpLeg
		{
			OFFSET 1.363060 -1.794630 0.839290
			CHANNELS 3 Zrotation Yrotation Xrotation
			JOINT LeftLeg
			{
				OFFSET 2.448110 -6.726130 0.000000
				CHANNELS 3 Zrotation Yrotation Xrotation
				JOINT LeftFoot
				{
					OFFSET 2.562200 -7.039590 0.000000
					CHANNELS 3 Zrotation Yrotation Xrotation
					JOINT LeftToeBase
					{
						OFFSET 0.157640 -0.433110 2.322550
						CHANNELS 3 Zrotation Yrotation Xrotation
						End Site
						{
							OFFSET 0.000000 0.000000 0.000000
						}
					}
				}
			}
		}
	}
	JOINT RHipJoint
	{
		OFFSET 0.000000 0.000000 0.000000
		CHANNELS 3 Zrotation Yrotation Xrotation
		JOINT RightUpLeg
		{
			OFFSET -1.305520 -1.794630 0.839290
			CHANNELS 3 Zrotation Yrotation Xrotation
			JOINT RightLeg
			{
				OFFSET -2.542530 -6.985550 0.000000
				CHANNELS 3 Zrotation Yrotation Xrotation
				JOINT RightFoot
				{
					OFFSET -2.568260 -7.056230 0.000000
					CHANNELS 3 Zrotation Yrotation Xrotation
					JOINT RightToeBase
					{
						OFFSET -0.164730 -0.452590 2.363150
						CHANNELS 3 Zrotation Yrotation Xrotation
						End Site
						{
							OFFSET 0.000000 0.000000 0.000000
						}
					}
				}
			}
		}
	}
	JOINT LowerBack
	{
		OFFSET 0.000000 0.000000 0.000000
		CHANNELS 3 Zrotation Yrotation Xrotation
		JOINT Spine
		{
			OFFSET 0.028270 2.035590 -0.193380
			CHANNELS 3 Zrotation Yrotation Xrotation
			JOINT Spine1
			{
				OFFSET 0.056720 2.048850 -0.042750
				CHANNELS 3 Zrotation Yrotation Xrotation
				JOINT Neck
				{
					OFFSET 0.000000 0.000000 0.000000
					CHANNELS 3 Zrotation Yrotation Xrotation
					JOINT Neck1
					{
						OFFSET -0.054170 1.746240 0.172020
						CHANNELS 3 Zrotation Yrotation Xrotation
						JOINT Head
						{
							OFFSET 0.104070 1.761360 -0.123970
							CHANNELS 3 Zrotation Yrotation Xrotation
							End Site
							{
								OFFSET 0.000000 0.000000 0.000000
							}
						}
					}
				}
				JOINT LeftShoulder
				{
					OFFSET 0.000000 0.000000 0.000000
					CHANNELS 3 Zrotation Yrotation Xrotation
					JOINT LeftArm
					{
						OFFSET 3.362410 1.200890 -0.311210
						CHANNELS 3 Zrotation Yrotation Xrotation
						JOINT LeftForeArm
						{
							OFFSET 4.983000 -0.000000 -0.000000
							CHANNELS 3 Zrotation Yrotation Xrotation
							JOINT LeftHand
							{
								OFFSET 3.483560 -0.000000 -0.000000
								CHANNELS 3 Zrotation Yrotation Xrotation
								JOINT LeftFingerBase
								{
									OFFSET 0.000000 0.000000 0.000000
									CHANNELS 3 Zrotation Yrotation Xrotation
									JOINT LeftHandIndex1
									{
										OFFSET 0.715260 -0.000000 -0.000000
										CHANNELS 3 Zrotation Yrotation Xrotation
										End Site
										{
											OFFSET 0.000000 0.000000 0.000000
										}
									}
								}
								JOINT LThumb
								{
									OFFSET 0.000000 0.000000 0.000000
									CHANNELS 3 Zrotation Yrotation Xrotation
									End Site
									{
										OFFSET 0.000000 0.000000 0.000000
									}
								}
							}
						}
					}
				}
				JOINT RightShoulder
				{
					OFFSET 0.000000 0.000000 0.000000
					CHANNELS 3 Zrotation Yrotation Xrotation
					JOINT RightArm
					{
						OFFSET -3.136600 1.374050 -0.404650
						CHANNELS 3 Zrotation Yrotation Xrotation
						JOINT RightForeArm
						{
							OFFSET -5.241900 -0.000000 -0.000000
							CHANNELS 3 Zrotation Yrotation Xrotation
							JOINT RightHand
							{
								OFFSET -3.444170 -0.000000 -0.000000
								CHANNELS 3 Zrotation Yrotation Xrotation
								JOINT RightFingerBase
								{
									OFFSET 0.000000 0.000000 0.000000
									CHANNELS 3 Zrotation Yrotation Xrotation
									JOINT RightHandIndex1
									{
										OFFSET -0.622530 -0.000000 -0.000000
										CHANNELS 3 Zrotation Yrotation Xrotation
										End Site
										{
											OFFSET 0.000000 0.000000 0.000000
										}
									}
								}
								JOINT RThumb
								{
									OFFSET 0.000000 0.000000 0.000000
									CHANNELS 3 Zrotation Yrotation Xrotation
									End Site
									{
										OFFSET 0.000000 0.000000 0.000000
									}
								}
							}
						}
					}
				}
			}
		}
	}
}
MOTION
Frames: 9
Frame Time: 0.008333
8.440355 16.462181 0.612298 97.646834 83.035833 113.721315 -8.128652 3.331982 4.105685 -22.173746 -6.993044 -18.989217 -3.477784 0.722636 32.062246 0.821355 -2.784980 -22.376870 -0.145100 -0.000000 -24.033700 12.854509 -0.297455 2.499240 -3.531414 1.205271 -38.954595 -2.473366 -4.595187 78.448546 -1.908220 -9.221971 -12.602360 0.590700 -0.000000 -21.926400 -6.454385 -1.210766 -7.658104 -2.039787 -0.772162 -4.209468 -7.346967 -0.579901 -0.858963 11.103115 -11.555267 -7.449946 -4.598042 -0.363011 0.031376 0.000000 0.000000 0.000000 4.939477 10.042502 -2.547030 -72.861429 -13.582195 13.825092 -179.226159 -65.295263 179.782093 28.545035 -23.298051 -6.505461 -0.811904 1.290857 -0.000000 0.000000 0.000000 0.000000 0.000000 0.000000 0.000000 14.954482 -6.131345 -1.811496 79.400331 -2.359711 24.997114 -179.441757 78.338841 179.872874 -16.764250 29.620365 -4.694256 0.244434 -1.044195 0.000000 0.000000 0.000000 0.000000 0.000000 0.000000 0.000000 
8.672523 16.550265 0.627361 101.505540 83.140089 117.568456 -8.262854 3.380716 4.101927 -21.526938 -6.845732 -17.217809 -3.433748 0.590326 30.085560 0.679675 -2.852431 -20.610600 -0.083300 0.000000 -26.389000 12.655245 -0.112967 2.652972 -3.413378 1.676356 -39.998559 -2.314387 -4.490100 76.867126 -1.881567 -8.895465 -12.644962 0.570300 0.000000 -22.031600 -6.168993 -1.635088 -7.765896 -1.902100 -1.215649 -4.212052 -7.199467 -1.043725 -0.866349 10.922956 -12.129116 -7.390029 -4.501271 -0.356754 0.064370 0.000000 0.000000 0.000000 5.179538 8.954129 -2.596515 -72.993731 -14.503837 14.686598 -179.222661 -65.008450 179.776810 28.360030 -23.443790 -6.513157 -0.819289 1.325719 -0.000000 0.000000 0.000000 0.000000 0.000000 0.000000 0.000000 14.274387 -7.122706 -1.806267 78.766138 -3.887670 24.885264 -179.446238 77.682113 179.872465 -16.631507 29.852597 -4.691183 0.234941 -1.039752 -0.000000 0.000000 0.000000 0.000000 0.000000 0.000000 0.000000 
8.909709 16.648935 0.639045 105.588523 83.265158 121.642776 -8.408900 3.431967 4.125497 -20.821369 -6.758797 -15.389648 -3.359594 0.454927 27.900888 0.546150 -2.762618 -18.511260 -0.058100 0.000000 -29.204600 12.428189 0.039477 2.811801 -3.200709 2.128085 -40.891939 -2.132884 -4.358581 74.877547 -1.862786 -8.608885 -12.452938 0.516700 0.000001 -22.505800 -5.809249 -2.065143 -7.914603 -1.744834 -1.672723 -4.221111 -7.031220 -1.522000 -0.850753 10.704059 -12.720801 -7.352190 -4.396503 -0.349803 0.091989 0.000000 0.000000 0.000000 5.387396 7.972734 -2.639596 -73.122055 -15.305649 15.593619 -179.215093 -64.700531 179.773190 28.122121 -23.606089 -6.511976 -0.826247 1.360225 -0.000000 0.000000 0.000000 0.000000 0.000000 0.000000 0.000000 13.533743 -8.105880 -1.814847 78.034731 -5.339315 24.858573 -179.458457 76.992194 179.872669 -16.473905 30.078529 -4.679707 0.226386 -1.035742 0.000000 0.000000 0.000000 0.000000 0.000000 0.000000 0.000000 
9.151321 16.757115 0.647785 109.808406 83.413508 125.845162 -8.563493 3.491887 4.166648 -20.068082 -6.703310 -13.498781 -3.255353 0.323546 25.509804 0.420142 -2.531896 -16.031551 -0.054000 0.000001 -32.603800 12.180549 0.157473 2.972848 -2.897491 2.571600 -41.608514 -1.934504 -4.202920 72.485133 -1.851708 -8.368440 -12.026855 0.431300 0.000000 -23.287800 -5.381130 -2.491450 -8.090321 -1.570100 -2.133411 -4.236917 -6.843384 -2.004872 -0.822281 10.449029 -13.325765 -7.327477 -4.287255 -0.342477 0.116210 0.000000 0.000000 0.000000 5.559777 7.068945 -2.675092 -73.260350 -15.960720 16.523119 -179.206828 -64.380911 179.771255 27.823009 -23.775533 -6.497033 -0.832009 1.393707 -0.000000 0.000000 0.000000 0.000000 0.000000 0.000000 0.000000 12.750688 -9.074523 -1.832794 77.205744 -6.702224 24.899557 -179.478946 76.293904 179.873513 -16.286485 30.270621 -4.654036 0.218672 -1.031469 0.000000 0.000000 0.000000 0.000000 0.000000 0.000000 0.000000 
9.396675 16.873549 0.653990 114.102333 83.594347 130.100790 -8.725973 3.565952 4.213386 -19.272039 -6.642065 -11.542924 -3.122904 0.204238 22.923065 0.302186 -2.188346 -13.139273 -0.052300 0.000000 -36.598300 11.917545 0.238061 3.132687 -2.501984 3.020329 -42.121597 -1.723563 -4.025543 69.698683 -1.845891 -8.168045 -11.377999 0.315701 0.000000 -24.280500 -4.887740 -2.904058 -8.276308 -1.380184 -2.587620 -4.257396 -6.640163 -2.481899 -0.784455 10.164410 -13.941610 -7.312802 -4.175890 -0.334923 0.137333 0.000000 0.000000 0.000000 5.688703 6.242311 -2.702191 -73.419228 -16.483463 17.474757 -179.198262 -64.074524 179.771010 27.458731 -23.936565 -6.462351 -0.836193 1.425366 -0.000000 0.000000 0.000000 0.000000 0.000000 0.000000 0.000000 11.944655 -10.024446 -1.858033 76.284863 -7.961540 24.990430 -179.507644 75.605075 179.874998 -16.065650 30.406616 -4.609375 0.211725 -1.026463 0.000000 0.000000 0.000000 0.000000 0.000000 0.000000 0.000000 
9.644928 16.996654 0.658066 118.462910 83.820793 134.388967 -8.898250 3.658419 4.251379 -18.431134 -6.528691 -9.526345 -2.966001 0.105654 20.165943 0.194124 -1.771831 -9.822745 -0.035801 -0.000000 -41.108100 11.642266 0.277806 3.287524 -2.006550 3.488443 -42.405603 -1.502736 -3.828971 66.530147 -1.840642 -7.990531 -10.522207 0.170700 -0.000001 -25.399601 -4.329498 -3.293501 -8.453181 -1.176929 -3.025902 -4.280557 -6.425135 -2.943351 -0.743790 9.856007 -14.563419 -7.302566 -4.064431 -0.327299 0.156453 0.000000 0.000000 0.000000 5.775537 5.479708 -2.720841 -73.612201 -16.876041 18.438964 -179.191594 -63.795885 179.772341 27.022116 -24.073466 -6.401853 -0.838179 1.454537 -0.000000 0.000000 0.000000 0.000000 0.000000 0.000000 0.000000 11.128201 -10.949556 -1.886814 75.282955 -9.109135 25.110787 -179.543689 74.936051 179.877063 -15.811197 30.473228 -4.544031 0.205440 -1.020498 -0.000000 0.000000 0.000000 0.000000 0.000000 0.000000 0.000000 
9.895225 17.124483 0.660290 122.979696 84.107349 138.788752 -9.084623 3.772039 4.264898 -17.535669 -6.307257 -7.466408 -2.790179 0.036219 17.287238 0.098986 -1.336823 -6.103028 0.005499 -0.000000 -45.922100 11.355598 0.272740 3.434880 -1.398486 3.991065 -42.440610 -1.272813 -3.615660 62.995605 -1.829465 -7.811234 -9.476273 -0.001900 0.000000 -26.585900 -3.703570 -3.651795 -8.601861 -0.961537 -3.440503 -4.304462 -6.201484 -3.381227 -0.706978 9.529054 -15.184873 -7.291281 -3.954118 -0.319710 0.174739 0.000000 0.000000 0.000000 5.827978 4.766490 -2.731901 -73.855731 -17.139942 19.404371 -179.189643 -63.555038 179.775055 26.505841 -24.170157 -6.309475 -0.837284 1.480618 -0.000000 0.000000 0.000000 0.000000 0.000000 0.000000 0.000000 10.307200 -11.843027 -1.914887 74.215705 -10.143774 25.239963 -179.585420 74.289755 179.879581 -15.527488 30.467039 -4.459201 0.199720 -1.013597 -0.000000 0.000000 0.000000 0.000000 0.000000 0.000000 0.000000 
10.146716 17.254747 0.660894 127.867914 84.464944 143.507896 -9.290976 3.908207 4.236928 -16.568546 -5.907830 -5.401601 -2.602519 0.003502 14.367507 0.019894 -0.958755 -2.038634 0.066300 -0.000000 -50.747900 11.057179 0.219225 3.574669 -0.662947 4.542788 -42.213729 -1.032609 -3.387547 59.114487 -1.804796 -7.603375 -8.253572 -0.199200 0.000000 -27.819800 -3.004535 -3.973062 -8.705088 -0.734520 -3.825803 -4.327875 -5.971068 -3.789800 -0.681897 9.187351 -15.798505 -7.272810 -3.845384 -0.312228 0.193660 0.000000 0.000000 0.000000 5.861417 4.081195 -2.737454 -74.168029 -17.268399 20.353318 -179.196744 -63.353309 179.778869 25.902877 -24.212064 -6.180045 -0.832702 1.503118 -0.000000 0.000000 0.000000 0.000000 0.000000 0.000000 0.000000 9.479441 -12.697674 -1.937064 73.101279 -11.069485 25.359781 -179.630599 73.663118 179.882372 -15.225480 30.392946 -4.359286 0.194542 -1.005989 -0.000000 0.000000 0.000000 0.000000 0.000000 0.000000 0.000000 
10.398779 17.384898 0.660109 133.484473 84.893726 148.904126 -9.523377 4.067925 4.151471 -15.509067 -5.244863 -3.403792 -2.411760 0.013041 11.530361 -0.040992 -0.743226 2.260965 0.114000 -0.000000 -55.163999 10.747246 0.116542 3.712066 0.208225 5.155127 -41.729020 -0.779538 -3.145149 54.911991 -1.758888 -7.342817 -6.863399 -0.416100 -0.000000 -29.095800 -2.229864 -4.254669 -8.753288 -0.497088 -4.178967 -4.349789 -5.736918 -4.165954 -0.671093 8.837452 -16.393667 -7.245916 -3.737909 -0.304813 0.213364 0.000000 0.000000 0.000000 5.890063 3.429054 -2.739002 -74.564486 -17.284926 21.285621 -179.213571 -63.198507 179.783519 25.216278 -24.183238 -6.011290 -0.824236 1.521561 -0.000000 0.000000 0.000000 0.000000 0.000000 0.000000 0.000000 8.645086 -13.502761 -1.951840 71.957198 -11.898861 25.451902 -179.676220 73.042822 179.885203 -14.919286 30.262107 -4.250681 0.189910 -0.998150 -0.000000 0.000000 0.000000 0.000000 0.000000 0.000000 0.000000 
